<?xml version="1.0" encoding="utf-8"?>
<svg version="1.1" xmlns="http://www.w3.org/2000/svg" xmlns:xlink="http://www.w3.org/1999/xlink" x="0px" y="0px"
	 viewBox="0 0 301.8 82" style="enable-background:new 0 0 301.8 82;" xml:space="preserve">
<g>
	<g>
		<g>
			<path style="fill:#0891B2;" d="M81.8,81.5H0.3V0h81.5V81.5z M10.4,71.3h61.2V10.2H10.4V71.3z"/>
		</g>
		<rect x="35.8" y="30.4" style="fill:#0891B2;" width="10.4" height="10.4"/>
		<rect x="36.1" y="61.1" style="fill:#0891B2;" width="35.7" height="10.4"/>
	</g>
</g>
<g>
	<g>
		<path style="fill:#155E75;" d="M106.7,37.9H100V9.1h11.4c2,0,3.8,0.4,5.3,1.2c1.5,0.8,2.8,1.9,3.6,3.2c0.9,1.4,1.3,3,1.3,4.8
			c0,1.8-0.4,3.4-1.3,4.8c-0.9,1.4-2.1,2.5-3.6,3.2c-1.5,0.8-3.3,1.2-5.3,1.2h-5.1v-5.7h5.1c1.1,0,1.9-0.3,2.6-1
			c0.6-0.6,0.9-1.5,0.9-2.6c0-1.1-0.3-2-0.9-2.6c-0.6-0.6-1.5-0.9-2.6-0.9h-4.7V37.9z"/>
		<path style="fill:#155E75;" d="M155.8,37.9h-7.3l-8.2-23.8h1.7l-8.2,23.8h-7l10.7-28.8h7.5L155.8,37.9z M149.8,32.6h-17v-5.7h17
			V32.6z"/>
		<path style="fill:#155E75;" d="M176.3,37.9h-6.6L158.9,9.1h7.3l7.8,23.1h-1.5L180,9.1h7L176.3,37.9z"/>
		<path style="fill:#155E75;" d="M215.6,37.9h-19.9V9.1h19.9v5.7h-13.2v17.5h13.2V37.9z M214.9,26.2h-12.8v-5.7h12.8V26.2z"/>
		<path style="fill:#155E75;" d="M233.7,37.9H227V9.1h11.4c2,0,3.8,0.4,5.3,1.2c1.5,0.8,2.8,1.9,3.6,3.2c0.9,1.4,1.3,3,1.3,4.8
			c0,1.8-0.4,3.4-1.3,4.8c-0.9,1.4-2.1,2.5-3.6,3.2c-1.5,0.8-3.3,1.2-5.3,1.2h-5.1v-5.7h5.1c1.1,0,1.9-0.3,2.6-1
			c0.6-0.6,0.9-1.5,0.9-2.6c0-1.1-0.3-2-0.9-2.6c-0.6-0.6-1.5-0.9-2.6-0.9h-4.7V37.9z M251.5,37.9h-8.1l-9-13.4h7.6L251.5,37.9z"/>
	</g>
	<g>
		<path style="fill:#0891B2;" d="M107.7,58.8c0.3,0,0.5,0.1,0.7,0.2c0.2,0.1,0.2,0.3,0.2,0.6c0,0.3-0.1,0.5-0.2,0.6
			c-0.1,0.1-0.4,0.2-0.6,0.2h-7c-0.3,0-0.5-0.1-0.7-0.2c-0.2-0.1-0.2-0.3-0.2-0.6c0-0.3,0.1-0.4,0.2-0.6c0.1-0.1,0.4-0.2,0.6-0.2
			h1.8v-6.6h-1.8c-0.3,0-0.5-0.1-0.7-0.2c-0.2-0.1-0.2-0.3-0.2-0.6c0-0.3,0.1-0.5,0.2-0.6s0.4-0.2,0.7-0.2h1.7V50
			c0-1.3,0.4-2.2,1.1-2.8c0.7-0.6,1.9-0.9,3.6-0.9c0.8,0,1.4,0.1,1.8,0.3c0.4,0.2,0.6,0.5,0.6,0.8c0,0.2-0.1,0.4-0.2,0.5
			s-0.4,0.2-0.6,0.2c-0.1,0-0.4,0-0.9-0.1c-0.5-0.1-0.9-0.1-1.3-0.1c-0.8,0-1.4,0.2-1.7,0.5c-0.4,0.3-0.5,0.9-0.5,1.7v0.6h3.8
			c0.3,0,0.5,0.1,0.7,0.2c0.2,0.1,0.2,0.3,0.2,0.6c0,0.2-0.1,0.4-0.2,0.6c-0.2,0.1-0.4,0.2-0.6,0.2h-3.7v6.6H107.7z"/>
		<path style="fill:#0891B2;" d="M124.1,55.4c0,1.5-0.5,2.8-1.6,3.8s-2.4,1.5-4.1,1.5c-1.7,0-3-0.5-4.1-1.5s-1.6-2.2-1.6-3.8
			s0.5-2.8,1.6-3.8c1-1,2.4-1.5,4.1-1.5s3,0.5,4.1,1.5C123.6,52.6,124.1,53.9,124.1,55.4z M118.5,59.1c1.1,0,2-0.3,2.7-1
			c0.7-0.7,1.1-1.6,1.1-2.7c0-1.1-0.4-2-1.1-2.7s-1.6-1.1-2.7-1.1s-2,0.4-2.7,1.1c-0.7,0.7-1.1,1.6-1.1,2.7c0,1.1,0.4,2,1.1,2.7
			C116.5,58.7,117.4,59.1,118.5,59.1z"/>
		<path style="fill:#0891B2;" d="M131.5,58.8h3.6c0.3,0,0.5,0.1,0.6,0.2c0.1,0.1,0.2,0.3,0.2,0.6c0,0.3-0.1,0.5-0.2,0.6
			c-0.1,0.1-0.4,0.2-0.7,0.2h-7c-0.3,0-0.5-0.1-0.6-0.2s-0.2-0.3-0.2-0.6c0-0.3,0.1-0.4,0.2-0.6c0.1-0.1,0.4-0.2,0.7-0.2h1.9v-6.9
			h-0.7c-0.7,0-1.1-0.1-1.3-0.2s-0.3-0.3-0.3-0.6c0-0.2,0.1-0.4,0.2-0.6c0.1-0.1,0.4-0.2,0.6-0.2h2.4c0.2,0,0.3,0,0.4,0.1
			c0.1,0.1,0.2,0.2,0.2,0.3v1.8c0.7-0.9,1.4-1.5,2.1-1.9s1.5-0.6,2.4-0.6c0.6,0,1.2,0.1,1.5,0.4c0.4,0.3,0.6,0.6,0.6,1
			c0,0.3-0.1,0.5-0.3,0.7c-0.2,0.2-0.4,0.3-0.6,0.3c-0.2,0-0.4-0.1-0.8-0.3c-0.4-0.2-0.7-0.3-1-0.3c-0.6,0-1.1,0.2-1.8,0.6
			c-0.6,0.4-1.3,1-2.1,1.9V58.8z"/>
		<path style="fill:#0891B2;" d="M164,60.3c-0.2,0-0.3,0-0.3-0.1c-0.1-0.1-0.1-0.2-0.1-0.4v-0.9c-0.4,0.5-1,1-1.6,1.3
			c-0.6,0.3-1.3,0.4-2.1,0.4c-1.4,0-2.5-0.5-3.4-1.4c-0.9-1-1.4-2.2-1.4-3.6c0-1.5,0.5-2.7,1.5-3.7c1-1,2.2-1.5,3.6-1.5
			c0.7,0,1.4,0.1,2,0.4c0.6,0.3,1.1,0.6,1.5,1.2v-4.1h-0.6c-0.6,0-1-0.1-1.2-0.2c-0.2-0.1-0.3-0.3-0.3-0.6c0-0.3,0.1-0.5,0.2-0.6
			c0.1-0.1,0.4-0.2,0.6-0.2h2.2c0.2,0,0.4,0,0.5,0.1c0.1,0.1,0.1,0.2,0.1,0.3v12.1h0.5c0.4,0,0.6,0.1,0.8,0.2
			c0.2,0.1,0.2,0.3,0.2,0.6c0,0.2-0.1,0.4-0.2,0.6s-0.3,0.2-0.5,0.2H164z M156.9,55.5c0,1,0.3,1.8,1,2.4s1.4,0.9,2.4,0.9
			c1,0,1.8-0.3,2.4-1c0.6-0.7,1-1.5,1-2.5c0-1-0.3-1.8-1-2.5c-0.6-0.6-1.4-1-2.4-1c-1,0-1.8,0.3-2.4,1S156.9,54.5,156.9,55.5z"/>
		<path style="fill:#0891B2;" d="M171.2,55.8c0.1,1,0.4,1.8,1,2.4c0.6,0.6,1.5,0.8,2.6,0.8c0.8,0,1.8-0.2,2.7-0.7
			c1-0.4,1.6-0.7,1.8-0.7c0.2,0,0.4,0.1,0.5,0.2s0.2,0.3,0.2,0.5c0,0.2-0.1,0.4-0.2,0.6c-0.2,0.2-0.4,0.3-0.7,0.5
			c-0.7,0.3-1.5,0.6-2.2,0.8c-0.8,0.2-1.5,0.3-2.3,0.3c-1.6,0-2.9-0.5-3.9-1.4c-1-0.9-1.5-2.2-1.5-3.7c0-1.6,0.5-2.9,1.6-3.8
			s2.4-1.5,4.1-1.5c1.5,0,2.8,0.5,3.8,1.4s1.5,2,1.5,3.3c0,0.4-0.1,0.7-0.3,0.8c-0.2,0.1-0.6,0.2-1.4,0.2h-0.2H171.2z M171.2,54.4h7
			c-0.1-0.9-0.5-1.5-1.1-2.1c-0.6-0.5-1.3-0.8-2.2-0.8c-1,0-1.8,0.3-2.4,0.8S171.4,53.6,171.2,54.4z"/>
		<path style="fill:#0891B2;" d="M184,51.9c-0.5,0-0.8-0.1-1-0.2c-0.2-0.1-0.3-0.3-0.3-0.6c0-0.2,0.1-0.4,0.2-0.6
			c0.1-0.1,0.4-0.2,0.6-0.2h3c0.4,0,0.7,0.1,0.8,0.2c0.1,0.1,0.2,0.3,0.2,0.6c0,0.3-0.1,0.5-0.3,0.6c-0.2,0.1-0.5,0.2-1,0.2H186
			l2.8,7l3.1-7h-0.6c-0.6,0-0.9-0.1-1.1-0.2s-0.3-0.3-0.3-0.6c0-0.3,0.1-0.5,0.2-0.6c0.1-0.1,0.4-0.2,0.8-0.2h3.3
			c0.3,0,0.5,0.1,0.6,0.2c0.1,0.1,0.2,0.3,0.2,0.6c0,0.3-0.1,0.5-0.3,0.6c-0.2,0.1-0.5,0.2-1,0.2h-0.2l-3.5,7.8
			c-0.2,0.4-0.4,0.7-0.5,0.8c-0.2,0.1-0.4,0.2-0.8,0.2c-0.3,0-0.5-0.1-0.7-0.2c-0.2-0.1-0.3-0.4-0.5-0.8L184,51.9z"/>
		<path style="fill:#0891B2;" d="M199.3,55.8c0.1,1,0.4,1.8,1,2.4c0.6,0.6,1.5,0.8,2.6,0.8c0.8,0,1.8-0.2,2.7-0.7
			c1-0.4,1.6-0.7,1.8-0.7c0.2,0,0.4,0.1,0.5,0.2s0.2,0.3,0.2,0.5c0,0.2-0.1,0.4-0.2,0.6c-0.2,0.2-0.4,0.3-0.7,0.5
			c-0.7,0.3-1.5,0.6-2.2,0.8c-0.8,0.2-1.5,0.3-2.3,0.3c-1.6,0-2.9-0.5-3.9-1.4c-1-0.9-1.5-2.2-1.5-3.7c0-1.6,0.5-2.9,1.6-3.8
			s2.4-1.5,4.1-1.5c1.5,0,2.8,0.5,3.8,1.4s1.5,2,1.5,3.3c0,0.4-0.1,0.7-0.3,0.8c-0.2,0.1-0.6,0.2-1.4,0.2h-0.2H199.3z M199.4,54.4h7
			c-0.1-0.9-0.5-1.5-1.1-2.1c-0.6-0.5-1.3-0.8-2.2-0.8c-1,0-1.8,0.3-2.4,0.8S199.6,53.6,199.4,54.4z"/>
		<path style="fill:#0891B2;" d="M216.3,47.8h-1.8c-0.7,0-1.1-0.1-1.3-0.2c-0.2-0.1-0.3-0.3-0.3-0.6c0-0.3,0.1-0.5,0.2-0.6
			c0.1-0.1,0.4-0.2,0.6-0.2h3.5c0.2,0,0.3,0,0.5,0.1s0.2,0.2,0.2,0.3v12.1h3.4c0.3,0,0.5,0.1,0.6,0.2c0.1,0.1,0.2,0.3,0.2,0.6
			c0,0.3-0.1,0.5-0.2,0.6c-0.1,0.1-0.4,0.2-0.7,0.2h-7.9c-0.3,0-0.5-0.1-0.6-0.2c-0.1-0.1-0.2-0.3-0.2-0.6c0-0.3,0.1-0.4,0.2-0.6
			s0.4-0.2,0.7-0.2h3V47.8z"/>
		<path style="fill:#0891B2;" d="M236.8,55.4c0,1.5-0.5,2.8-1.6,3.8s-2.4,1.5-4.1,1.5c-1.7,0-3-0.5-4.1-1.5s-1.6-2.2-1.6-3.8
			s0.5-2.8,1.6-3.8c1-1,2.4-1.5,4.1-1.5s3,0.5,4.1,1.5C236.3,52.6,236.8,53.9,236.8,55.4z M231.1,59.1c1.1,0,2-0.3,2.7-1
			c0.7-0.7,1.1-1.6,1.1-2.7c0-1.1-0.4-2-1.1-2.7s-1.6-1.1-2.7-1.1s-2,0.4-2.7,1.1c-0.7,0.7-1.1,1.6-1.1,2.7c0,1.1,0.4,2,1.1,2.7
			C229.1,58.7,230,59.1,231.1,59.1z"/>
		<path style="fill:#0891B2;" d="M242.5,63.1h2.6c0.3,0,0.5,0.1,0.6,0.2s0.2,0.3,0.2,0.6c0,0.3-0.1,0.5-0.2,0.6
			c-0.1,0.1-0.4,0.2-0.7,0.2h-4.7c-0.3,0-0.5-0.1-0.6-0.2c-0.1-0.1-0.2-0.3-0.2-0.6c0-0.3,0.1-0.5,0.3-0.6c0.2-0.1,0.5-0.2,1-0.2
			h0.2V51.9h-0.2c-0.5,0-0.8-0.1-1-0.2c-0.2-0.1-0.3-0.3-0.3-0.6c0-0.3,0.1-0.4,0.2-0.6c0.1-0.1,0.4-0.2,0.6-0.2h1.6
			c0.2,0,0.4,0,0.5,0.1c0.1,0.1,0.1,0.2,0.1,0.3v1c0.5-0.5,1-0.9,1.6-1.1c0.6-0.3,1.2-0.4,1.9-0.4c1.4,0,2.6,0.5,3.6,1.5
			s1.5,2.2,1.5,3.7c0,1.4-0.5,2.6-1.4,3.5s-2.1,1.4-3.5,1.4c-0.8,0-1.5-0.1-2.1-0.4c-0.6-0.3-1.2-0.7-1.6-1.2V63.1z M245.8,58.8
			c1,0,1.8-0.3,2.4-0.9c0.6-0.6,1-1.4,1-2.4c0-1-0.3-1.8-1-2.4c-0.6-0.6-1.5-1-2.4-1s-1.8,0.3-2.4,0.9s-0.9,1.4-0.9,2.4
			c0,1,0.3,1.8,0.9,2.4C244,58.5,244.8,58.8,245.8,58.8z"/>
		<path style="fill:#0891B2;" d="M255.7,55.8c0.1,1,0.4,1.8,1,2.4c0.6,0.6,1.5,0.8,2.6,0.8c0.8,0,1.8-0.2,2.7-0.7
			c1-0.4,1.6-0.7,1.8-0.7c0.2,0,0.4,0.1,0.5,0.2s0.2,0.3,0.2,0.5c0,0.2-0.1,0.4-0.2,0.6c-0.2,0.2-0.4,0.3-0.7,0.5
			c-0.7,0.3-1.5,0.6-2.2,0.8c-0.8,0.2-1.5,0.3-2.3,0.3c-1.6,0-2.9-0.5-3.9-1.4c-1-0.9-1.5-2.2-1.5-3.7c0-1.6,0.5-2.9,1.6-3.8
			s2.4-1.5,4.1-1.5c1.5,0,2.8,0.5,3.8,1.4s1.5,2,1.5,3.3c0,0.4-0.1,0.7-0.3,0.8c-0.2,0.1-0.6,0.2-1.4,0.2h-0.2H255.7z M255.7,54.4h7
			c-0.1-0.9-0.5-1.5-1.1-2.1c-0.6-0.5-1.3-0.8-2.2-0.8c-1,0-1.8,0.3-2.4,0.8S255.9,53.6,255.7,54.4z"/>
		<path style="fill:#0891B2;" d="M272.3,58.8h3.6c0.3,0,0.5,0.1,0.6,0.2c0.1,0.1,0.2,0.3,0.2,0.6c0,0.3-0.1,0.5-0.2,0.6
			c-0.1,0.1-0.4,0.2-0.7,0.2h-7c-0.3,0-0.5-0.1-0.6-0.2s-0.2-0.3-0.2-0.6c0-0.3,0.1-0.4,0.2-0.6c0.1-0.1,0.4-0.2,0.7-0.2h1.9v-6.9
			H270c-0.7,0-1.1-0.1-1.3-0.2s-0.3-0.3-0.3-0.6c0-0.2,0.1-0.4,0.2-0.6c0.1-0.1,0.4-0.2,0.6-0.2h2.4c0.2,0,0.3,0,0.4,0.1
			c0.1,0.1,0.2,0.2,0.2,0.3v1.8c0.7-0.9,1.4-1.5,2.1-1.9s1.5-0.6,2.4-0.6c0.6,0,1.2,0.1,1.5,0.4c0.4,0.3,0.6,0.6,0.6,1
			c0,0.3-0.1,0.5-0.3,0.7c-0.2,0.2-0.4,0.3-0.6,0.3c-0.2,0-0.4-0.1-0.8-0.3c-0.4-0.2-0.7-0.3-1-0.3c-0.6,0-1.1,0.2-1.8,0.6
			c-0.6,0.4-1.3,1-2.1,1.9V58.8z"/>
		<path style="fill:#0891B2;" d="M282.8,59.6v-1.9c0-0.3,0.1-0.5,0.2-0.7c0.1-0.1,0.3-0.2,0.6-0.2c0.3,0,0.5,0.2,0.7,0.6
			c0.1,0.2,0.2,0.4,0.3,0.5c0.3,0.4,0.7,0.7,1.3,0.9c0.6,0.2,1.2,0.3,1.9,0.3c0.8,0,1.4-0.2,1.8-0.5s0.7-0.7,0.7-1.2
			c0-0.5-0.2-0.9-0.6-1.1c-0.4-0.2-1-0.3-1.9-0.3h-0.6c-1.5,0-2.6-0.3-3.3-0.8s-1.1-1.2-1.1-2.2c0-0.9,0.4-1.7,1.1-2.2
			c0.7-0.5,1.8-0.8,3.2-0.8c0.6,0,1.1,0.1,1.7,0.2c0.6,0.2,0.9,0.2,0.9,0.2c0.1,0,0.2-0.1,0.5-0.2c0.2-0.1,0.4-0.2,0.7-0.2
			c0.2,0,0.4,0.1,0.5,0.3c0.1,0.2,0.2,0.4,0.2,0.8v1.3c0,0.4-0.1,0.7-0.2,0.8c-0.1,0.2-0.3,0.3-0.5,0.3c-0.2,0-0.5-0.2-0.8-0.5
			c-0.2-0.3-0.4-0.4-0.5-0.6c-0.4-0.4-0.8-0.6-1.2-0.8c-0.4-0.2-0.9-0.2-1.5-0.2c-0.7,0-1.2,0.1-1.6,0.4c-0.4,0.3-0.6,0.7-0.6,1.1
			c0,0.5,0.2,0.8,0.6,1s1.3,0.3,2.7,0.3c1.5,0,2.6,0.3,3.3,0.8c0.7,0.5,1,1.2,1,2.2c0,1-0.4,1.7-1.1,2.3s-1.8,0.9-3.1,0.9
			c-0.4,0-0.9,0-1.4-0.1c-0.5-0.1-1.1-0.2-1.9-0.4c-0.3,0.2-0.5,0.3-0.6,0.4c-0.2,0.1-0.3,0.1-0.5,0.1c-0.3,0-0.4-0.1-0.6-0.3
			C282.9,60.1,282.8,59.9,282.8,59.6z"/>
		<path style="fill:#0891B2;" d="M296.7,57.7c0.1-0.2,0.1-0.4,0.2-0.5s0.2-0.1,0.4-0.1h2.2c0.1,0,0.2,0,0.2,0.1
			c0.1,0,0.1,0.1,0.1,0.2c0,0,0,0.1,0,0.1s0,0.1-0.1,0.2l-2.8,5.8c-0.1,0.1-0.1,0.2-0.2,0.2c-0.1,0-0.2,0.1-0.3,0.1
			c-0.1,0-0.1,0-0.1,0c0,0-0.1,0-0.1,0l-0.7-0.3c-0.1,0-0.2-0.1-0.2-0.2c-0.1-0.1-0.1-0.1-0.1-0.2c0,0,0-0.1,0-0.1c0,0,0-0.1,0-0.2
			L296.7,57.7z M295.9,52.6c0-0.6,0.2-1,0.6-1.4c0.4-0.4,0.9-0.5,1.5-0.5c0.6,0,1.2,0.2,1.5,0.5c0.4,0.4,0.6,0.8,0.6,1.4
			s-0.2,1-0.6,1.4c-0.4,0.4-0.9,0.5-1.5,0.5c-0.6,0-1.1-0.2-1.5-0.5S295.9,53.2,295.9,52.6z"/>
	</g>
</g>
</svg>
